<svg width="26" height="26" viewBox="0 0 26 26" fill="none" xmlns="http://www.w3.org/2000/svg">
<path d="M12.667 24.6667C19.2944 24.6667 24.667 19.2941 24.667 12.6667C24.667 6.03924 19.2944 0.666656 12.667 0.666656C6.03957 0.666656 0.666992 6.03924 0.666992 12.6667C0.666992 19.2941 6.03957 24.6667 12.667 24.6667Z" fill="#007BFF" stroke="#E2E2E2" stroke-linejoin="round"/>
<path d="M12.6672 9.06664C13.6613 9.06664 14.4672 8.26078 14.4672 7.26664C14.4672 6.2725 13.6613 5.46664 12.6672 5.46664C11.673 5.46664 10.8672 6.2725 10.8672 7.26664C10.8672 8.26078 11.673 9.06664 12.6672 9.06664Z" fill="#0044A4" stroke="white" stroke-linejoin="round"/>
<path d="M12.6672 19.8667C13.6613 19.8667 14.4672 19.0608 14.4672 18.0667C14.4672 17.0725 13.6613 16.2667 12.6672 16.2667C11.673 16.2667 10.8672 17.0725 10.8672 18.0667C10.8672 19.0608 11.673 19.8667 12.6672 19.8667Z" fill="#0044A4" stroke="white" stroke-linejoin="round"/>
<path d="M7.2668 14.4667C8.26094 14.4667 9.0668 13.6608 9.0668 12.6667C9.0668 11.6725 8.26094 10.8667 7.2668 10.8667C6.27266 10.8667 5.4668 11.6725 5.4668 12.6667C5.4668 13.6608 6.27266 14.4667 7.2668 14.4667Z" fill="#0044A4" stroke="white" stroke-linejoin="round"/>
<path d="M18.0666 14.4667C19.0607 14.4667 19.8666 13.6608 19.8666 12.6667C19.8666 11.6725 19.0607 10.8667 18.0666 10.8667C17.0725 10.8667 16.2666 11.6725 16.2666 12.6667C16.2666 13.6608 17.0725 14.4667 18.0666 14.4667Z" fill="#0044A4" stroke="white" stroke-linejoin="round"/>
<path d="M12.667 24.6667H24.667" stroke="#DEDEDE" stroke-linecap="round"/>
</svg>
